<svg width="150" height="150" xmlns="http://www.w3.org/2000/svg">
 <title>Icon</title>

 <g>
  <title>Layer 1</title>
  <rect id="svg_3" height="6" width="30.66672" y="107.83341" x="27.66666" stroke-width="0" stroke="#000" fill="#7AD6CA"/>
  <rect stroke-width="0" id="svg_4" height="83" width="6" y="30.50008" x="27.33333" stroke="#000" fill="#7AD6CA"/>
  <rect stroke-width="0" id="svg_5" height="70" width="6" y="48.83339" x="52.66672" stroke="#000" fill="#7AD6CA"/>
  <ellipse ry="33" rx="33" id="svg_6" cy="84.83339" cx="90.66672" stroke-width="0" stroke="#000" fill="#7AD6CA"/>
  <path id="svg_15" d="m75.65176,112.28324l0,0c-9.57205,0 -17.33327,-12.08614 -17.33327,-26.99989c0,-14.91184 7.76122,-26.99989 17.33327,-26.99989l0,0c-5.45512,6.37359 -8.66604,16.37723 -8.66604,26.99989s3.21092,20.62439 8.66604,26.99989z" stroke-width="0" stroke="#000" fill="#6D97AB"/>
  <path transform="rotate(-89.4735, 89.7247, 109.16)" id="svg_18" d="m97.89441,134.16092l0,0c-9.02338,0 -16.33973,-11.19125 -16.33973,-25.00076c0,-13.80774 7.31635,-25.00076 16.33973,-25.00076l0,0c-5.14243,5.90168 -8.1693,15.16463 -8.1693,25.00076s3.02687,19.09731 8.1693,25.00076z" stroke-width="0" stroke="#000" fill="#306856"/>
  <line id="svg_19" y2="118.33248" x2="53.00017" y1="84.99928" x1="52.66684" stroke="#000" fill="none"/>
 </g>
</svg>